<?xml version="1.0" encoding="UTF-8"?>
<svg version="1.1" xmlns="http://www.w3.org/2000/svg" width="512" height="512">
<path d="M0 0 C2.5690587 2.54642382 4.25516221 4.84941911 5.125 8.4375 C6.300625 8.210625 7.47625 7.98375 8.6875 7.75 C14.12228694 7.11005145 17.71703774 8.72517129 22.05859375 11.8125 C34.85355624 22.1881421 41.7781267 37.04367546 43.53125 53.17578125 C45.31322934 73.32748931 41.94564906 93.58323381 31.8125 111.25 C26.71550084 120.3183525 27.21547417 129.71725129 27.17138672 139.875 C26.82071662 159.24675425 18.337472 177.48727575 5.125 191.4375 C3.52978516 192.57251953 3.52978516 192.57251953 1.90234375 193.73046875 C-1.338359 196.88912839 -1.59948662 198.2302821 -1.7578125 202.56445312 C-1.75523437 203.28568359 -1.75265625 204.00691406 -1.75 204.75 C-1.770625 205.49056641 -1.79125 206.23113281 -1.8125 206.99414062 C-1.8593121 208.80810942 -1.87073545 210.62293229 -1.875 212.4375 C-0.72 212.746875 0.435 213.05625 1.625 213.375 C5.52891318 214.63025824 8.67470233 216.38704445 12.10717773 218.61401367 C20.89600306 224.1788716 29.37140681 225.9718854 39.56445312 227.63330078 C68.54206256 232.37079552 96.82131875 241.4948981 118.125 262.4375 C118.82367188 263.12328125 119.52234375 263.8090625 120.2421875 264.515625 C146.03110221 291.60903735 148.67142173 335.74523044 153.5 370.9375 C153.75148804 372.74118042 153.75148804 372.74118042 154.00805664 374.58129883 C154.70690416 379.90497232 155.28769364 385.22887045 155.5390625 390.59375 C155.58240723 391.45806641 155.62575195 392.32238281 155.67041016 393.21289062 C155.125 395.4375 155.125 395.4375 152.95147258 397.05346662 C149.7956084 398.59879255 147.85003262 398.81062148 144.35602856 398.80664349 C143.19655277 398.81261663 142.03707699 398.81858978 140.84246558 398.82474393 C139.57301685 398.8160054 138.30356812 398.80726688 136.99565125 398.79826355 C135.63015002 398.79957194 134.26464953 398.80219897 132.89915305 398.80603105 C129.14783396 398.8127415 125.39677166 398.80073578 121.64548528 398.78569686 C117.59986401 398.77274878 113.55425737 398.77712509 109.50862122 398.77940369 C102.49961093 398.7809772 95.49068439 398.77155986 88.48169518 398.75469017 C78.34787071 398.7303153 68.21408677 398.72249645 58.08023617 398.7187262 C41.63899842 398.71215934 25.19780531 398.69219181 8.7565918 398.66381836 C-7.21508562 398.63628386 -23.18675091 398.61504729 -39.15844727 398.60229492 C-40.14284219 398.60150675 -41.12723711 398.60071858 -42.14146218 398.59990653 C-47.07985245 398.59599143 -52.0182428 398.5922003 -56.95663321 398.58847082 C-97.92945319 398.55736761 -138.90222404 398.50452542 -179.875 398.4375 C-180.00473206 399.22577682 -180.13446411 400.01405365 -180.26812744 400.82621765 C-180.875 403.4375 -180.875 403.4375 -182.58496094 405.21801758 C-185.38071106 406.70679923 -187.35530778 406.86516776 -190.515625 406.94921875 C-192.12050781 407.00239258 -192.12050781 407.00239258 -193.7578125 407.05664062 C-194.86898437 407.07919922 -195.98015625 407.10175781 -197.125 407.125 C-198.25164062 407.15916016 -199.37828125 407.19332031 -200.5390625 407.22851562 C-203.31760901 407.31093014 -206.09584252 407.38010298 -208.875 407.4375 C-208.36564378 411.45422377 -207.48833671 413.28779473 -204.49609375 415.99609375 C-203.82255859 416.62966797 -203.14902344 417.26324219 -202.45507812 417.91601562 C-201.02650459 419.22217721 -199.59420028 420.52427001 -198.15820312 421.82226562 C-193.1413102 426.56017505 -193.1413102 426.56017505 -191.97265625 430.41015625 C-193.3828906 435.14146198 -196.47227879 437.95958053 -199.875 441.4375 C-200.58527344 442.20449219 -201.29554688 442.97148437 -202.02734375 443.76171875 C-204.27792063 446.1863297 -206.57088511 448.56379775 -208.875 450.9375 C-209.64328125 451.75992187 -210.4115625 452.58234375 -211.203125 453.4296875 C-214.52377839 456.82940406 -216.81508983 459.13000958 -221.4296875 460.46875 C-226.66803839 458.90080824 -229.42261156 455.44092903 -233 451.4375 C-234.36552186 449.92649263 -235.74272073 448.42593478 -237.1328125 446.9375 C-237.7323877 446.2671875 -238.33196289 445.596875 -238.94970703 444.90625 C-241.39096639 443.04388425 -242.87728297 443.14812762 -245.875 443.4375 C-245.85928955 444.20940674 -245.8435791 444.98131348 -245.82739258 445.77661133 C-245.76510393 449.26766662 -245.72602827 452.75860509 -245.6875 456.25 C-245.66236328 457.46494141 -245.63722656 458.67988281 -245.61132812 459.93164062 C-245.60166016 461.09501953 -245.59199219 462.25839844 -245.58203125 463.45703125 C-245.5663208 464.53057861 -245.55061035 465.60412598 -245.53442383 466.71020508 C-245.875 469.4375 -245.875 469.4375 -247.01831055 471.2487793 C-252.89100024 475.00869069 -261.59484447 473.65910959 -268.35253906 473.67773438 C-270.50103555 473.68750471 -272.64859972 473.71860968 -274.796875 473.75 C-276.1692652 473.75652537 -277.54166218 473.76177767 -278.9140625 473.765625 C-280.15365723 473.7749707 -281.39325195 473.78431641 -282.67041016 473.79394531 C-286.15447288 473.40641434 -287.59447547 473.0967107 -289.875 470.4375 C-290.32910156 467.71020508 -290.32910156 467.71020508 -290.265625 464.45703125 C-290.25273437 463.29365234 -290.23984375 462.13027344 -290.2265625 460.93164062 C-290.19304687 459.71669922 -290.15953125 458.50175781 -290.125 457.25 C-290.10695313 456.02345703 -290.08890625 454.79691406 -290.0703125 453.53320312 C-290.02311124 450.50052241 -289.95727677 447.46939913 -289.875 444.4375 C-292.22636309 443.70070154 -292.22636309 443.70070154 -294.875 443.4375 C-297.14544359 445.45131101 -298.95382817 447.31618055 -300.875 449.625 C-309.71210924 459.90879337 -309.71210924 459.90879337 -314.6875 461.125 C-318.10382545 460.38814549 -318.99630893 459.7037549 -321.515625 457.42578125 C-322.21792236 456.7913208 -322.92021973 456.15686035 -323.64379883 455.50317383 C-324.38009521 454.82150146 -325.1163916 454.1398291 -325.875 453.4375 C-326.60936279 452.75905029 -327.34372559 452.08060059 -328.1003418 451.3815918 C-330.36361523 449.25895565 -332.5905379 447.10328346 -334.8125 444.9375 C-335.96202148 443.85662109 -335.96202148 443.85662109 -337.13476562 442.75390625 C-340.44350139 439.51257609 -342.6026382 437.18790095 -344.19921875 432.7890625 C-343.77144681 428.36703447 -341.8224638 426.26858259 -338.75 423.3125 C-338.26273437 422.81363281 -337.77546875 422.31476563 -337.2734375 421.80078125 C-334.91853186 419.40203429 -332.51951425 417.1207593 -330.0078125 414.8828125 C-327.50474188 412.01299161 -327.66758619 411.08965445 -327.875 407.4375 C-328.64690674 407.45321045 -329.41881348 407.4689209 -330.21411133 407.48510742 C-333.70516662 407.54739607 -337.19610509 407.58647173 -340.6875 407.625 C-342.50991211 407.66270508 -342.50991211 407.66270508 -344.36914062 407.70117188 C-345.53251953 407.71083984 -346.69589844 407.72050781 -347.89453125 407.73046875 C-348.96807861 407.7461792 -350.04162598 407.76188965 -351.14770508 407.77807617 C-354.31037626 407.38313156 -354.94538554 406.8819944 -356.875 404.4375 C-357.17335467 401.53126282 -357.29532628 398.84380697 -357.2734375 395.9375 C-357.27630768 395.10541016 -357.27917786 394.27332031 -357.28213501 393.41601562 C-357.28417562 391.65754516 -357.27864593 389.89905199 -357.26611328 388.140625 C-357.25005902 385.44740087 -357.26596145 382.7556774 -357.28515625 380.0625 C-357.28317382 378.35416335 -357.27933014 376.64582764 -357.2734375 374.9375 C-357.27951019 374.13119141 -357.28558289 373.32488281 -357.2918396 372.49414062 C-357.22104215 366.87256647 -357.22104215 366.87256647 -355.51545715 364.72819519 C-353.10548468 362.83205308 -351.14719875 363.00278423 -348.11328125 362.92578125 C-346.43588867 362.87260742 -346.43588867 362.87260742 -344.72460938 362.81835938 C-343.55736328 362.79580078 -342.39011719 362.77324219 -341.1875 362.75 C-340.00865234 362.71583984 -338.82980469 362.68167969 -337.61523438 362.64648438 C-334.70191775 362.56392075 -331.78890534 362.49479678 -328.875 362.4375 C-328.06587759 360.63490185 -328.06587759 360.63490185 -327.875 358.4375 C-329.20606676 356.49534464 -329.20606676 356.49534464 -331.2421875 354.7578125 C-331.96277344 354.07589844 -332.68335938 353.39398438 -333.42578125 352.69140625 C-334.96712096 351.27959088 -336.50878424 349.86812868 -338.05078125 348.45703125 C-341.08668131 345.58347878 -343.49928894 343.21938519 -345.3203125 339.4296875 C-344.58702997 334.50254349 -341.30233035 331.86947758 -337.875 328.4375 C-337.15812012 327.6758252 -336.44124023 326.91415039 -335.70263672 326.12939453 C-333.435359 323.72260725 -331.12918465 321.35919262 -328.8125 319 C-328.03583984 318.18595703 -327.25917969 317.37191406 -326.45898438 316.53320312 C-325.69779297 315.76041016 -324.93660156 314.98761719 -324.15234375 314.19140625 C-323.47421631 313.49345947 -322.79608887 312.7955127 -322.09741211 312.07641602 C-319.34263315 310.0449065 -317.26286588 309.67202452 -313.875 309.4375 C-311.890625 310.51953125 -311.890625 310.51953125 -310.125 312.25 C-309.45984375 312.88679688 -308.7946875 313.52359375 -308.109375 314.1796875 C-307.37203125 314.92476563 -306.6346875 315.66984375 -305.875 316.4375 C-304.97265625 317.32695312 -304.0703125 318.21640625 -303.140625 319.1328125 C-300.70145217 321.55131437 -298.28153561 323.98658157 -295.875 326.4375 C-294.885 326.1075 -293.895 325.7775 -292.875 325.4375 C-292.8656543 324.70112305 -292.85630859 323.96474609 -292.84667969 323.20605469 C-292.79295845 319.86585782 -292.70931378 316.52705881 -292.625 313.1875 C-292.61082031 312.02863281 -292.59664063 310.86976563 -292.58203125 309.67578125 C-292.54980469 308.56074219 -292.51757812 307.44570313 -292.484375 306.296875 C-292.46342773 305.27045898 -292.44248047 304.24404297 -292.42089844 303.18652344 C-291.70924939 299.60281671 -290.91764369 298.47270317 -287.875 296.4375 C-284.95113526 296.0639691 -282.41391344 295.9227533 -279.49609375 295.9765625 C-278.6876149 295.97747894 -277.87913605 295.97839539 -277.04615784 295.9793396 C-275.34068921 295.98537054 -273.63523093 296.00110147 -271.92993164 296.02587891 C-269.31812582 296.06242129 -266.70773808 296.06689793 -264.09570312 296.06640625 C-262.43748773 296.0762366 -260.77928194 296.08789324 -259.12109375 296.1015625 C-258.33979599 296.10378815 -257.55849823 296.10601379 -256.75352478 296.10830688 C-252.94485104 296.17509567 -251.11802072 296.27548619 -247.875 298.4375 C-246.6924545 301.53728605 -246.75907046 304.57018191 -246.77734375 307.859375 C-246.78217773 309.39658203 -246.78217773 309.39658203 -246.78710938 310.96484375 C-246.79967773 312.56005859 -246.79967773 312.56005859 -246.8125 314.1875 C-246.81701172 315.26644531 -246.82152344 316.34539062 -246.82617188 317.45703125 C-246.83794273 320.11724383 -246.85438601 322.77734365 -246.875 325.4375 C-243.08674762 325.72844758 -243.08674762 325.72844758 -239.9609375 323.828125 C-239.11402344 322.76851563 -239.11402344 322.76851563 -238.25 321.6875 C-237.39535156 320.64335938 -237.39535156 320.64335938 -236.5234375 319.578125 C-235.70746094 318.51851563 -235.70746094 318.51851563 -234.875 317.4375 C-234.11123047 316.6021875 -234.11123047 316.6021875 -233.33203125 315.75 C-231.07864469 312.17357951 -230.276491 308.24539226 -229.1875 304.1875 C-225.34021987 290.67970806 -219.57600248 278.52977106 -210.875 267.4375 C-210.36839844 266.7671875 -209.86179688 266.096875 -209.33984375 265.40625 C-188.32487672 239.38280188 -148.65520684 229.52343056 -117.06640625 225.5546875 C-111.00582961 224.66786388 -106.54132962 222.64355562 -101.375 219.4375 C-99.86599854 218.53928485 -98.3556203 217.6433779 -96.84375 216.75 C-96.15796875 216.34007812 -95.4721875 215.93015625 -94.765625 215.5078125 C-92.54446867 214.25038102 -90.28370695 213.27863576 -87.875 212.4375 C-87.545 209.4675 -87.215 206.4975 -86.875 203.4375 C-87.96167969 203.05658203 -87.96167969 203.05658203 -89.0703125 202.66796875 C-93.99157874 200.50891741 -97.81770801 196.90696386 -101.875 193.4375 C-102.49761719 192.91285156 -103.12023437 192.38820312 -103.76171875 191.84765625 C-115.98851168 180.6468879 -124.25013903 162.77033573 -125.875 146.4375 C-125.9715734 143.49174742 -125.99777271 140.54896769 -126.02563477 137.60180664 C-126.17513772 124.51584277 -128.75241517 114.66611983 -133.92529297 102.72705078 C-141.97529307 83.32013538 -143.86391668 58.28870886 -136.14550781 38.57421875 C-131.62102281 27.71545474 -125.4222143 19.45302814 -116.875 11.4375 C-116.07320312 10.67824219 -115.27140625 9.91898438 -114.4453125 9.13671875 C-87.57318321 -14.16150782 -28.92671905 -24.0096999 0 0 Z " fill="#C4C3C3" transform="translate(356.875,25.5625)"/>
<path d="M0 0 C-0.41214626 3.87417485 -1.03112561 7.27878437 -2.375 10.9375 C-16.46075076 51.94576945 0.9183643 100.23512751 18.6484375 137.26953125 C24.04374807 148.2583408 29.90859166 159.00741226 35.81347656 169.72875977 C37 172 37 172 37 173 C2.35 173 -32.3 173 -68 173 C-68.33 174.65 -68.66 176.3 -69 178 C-71.96732129 181.08975931 -74.45734697 181.40046136 -78.640625 181.51171875 C-79.71054688 181.54716797 -80.78046875 181.58261719 -81.8828125 181.61914062 C-83.54957031 181.65297852 -83.54957031 181.65297852 -85.25 181.6875 C-86.37664062 181.72166016 -87.50328125 181.75582031 -88.6640625 181.79101562 C-91.44260901 181.87343014 -94.22084252 181.94260298 -97 182 C-96.49064378 186.01672377 -95.61333671 187.85029473 -92.62109375 190.55859375 C-91.94755859 191.19216797 -91.27402344 191.82574219 -90.58007812 192.47851562 C-89.15150459 193.78467721 -87.71920028 195.08677001 -86.28320312 196.38476562 C-81.2663102 201.12267505 -81.2663102 201.12267505 -80.09765625 204.97265625 C-81.5078906 209.70396198 -84.59727879 212.52208053 -88 216 C-89.06541016 217.15048828 -89.06541016 217.15048828 -90.15234375 218.32421875 C-92.40292063 220.7488297 -94.69588511 223.12629775 -97 225.5 C-97.76828125 226.32242188 -98.5365625 227.14484375 -99.328125 227.9921875 C-102.64877839 231.39190406 -104.94008983 233.69250958 -109.5546875 235.03125 C-114.79303839 233.46330824 -117.54761156 230.00342903 -121.125 226 C-122.49052186 224.48899263 -123.86772073 222.98843478 -125.2578125 221.5 C-125.8573877 220.8296875 -126.45696289 220.159375 -127.07470703 219.46875 C-129.51596639 217.60638425 -131.00228297 217.71062762 -134 218 C-133.98428955 218.77190674 -133.9685791 219.54381348 -133.95239258 220.33911133 C-133.89010393 223.83016662 -133.85102827 227.32110509 -133.8125 230.8125 C-133.78736328 232.02744141 -133.76222656 233.24238281 -133.73632812 234.49414062 C-133.72666016 235.65751953 -133.71699219 236.82089844 -133.70703125 238.01953125 C-133.6913208 239.09307861 -133.67561035 240.16662598 -133.65942383 241.27270508 C-134 244 -134 244 -135.14331055 245.8112793 C-141.01600024 249.57119069 -149.71984447 248.22160959 -156.47753906 248.24023438 C-158.62603555 248.25000471 -160.77359972 248.28110968 -162.921875 248.3125 C-164.2942652 248.31902537 -165.66666218 248.32427767 -167.0390625 248.328125 C-168.27865723 248.3374707 -169.51825195 248.34681641 -170.79541016 248.35644531 C-174.27947288 247.96891434 -175.71947547 247.6592107 -178 245 C-178.45410156 242.27270508 -178.45410156 242.27270508 -178.390625 239.01953125 C-178.37773437 237.85615234 -178.36484375 236.69277344 -178.3515625 235.49414062 C-178.31804687 234.27919922 -178.28453125 233.06425781 -178.25 231.8125 C-178.23195313 230.58595703 -178.21390625 229.35941406 -178.1953125 228.09570312 C-178.14811124 225.06302241 -178.08227677 222.03189913 -178 219 C-180.35136309 218.26320154 -180.35136309 218.26320154 -183 218 C-185.27044359 220.01381101 -187.07882817 221.87868055 -189 224.1875 C-197.83710924 234.47129337 -197.83710924 234.47129337 -202.8125 235.6875 C-206.22882545 234.95064549 -207.12130893 234.2662549 -209.640625 231.98828125 C-210.34292236 231.3538208 -211.04521973 230.71936035 -211.76879883 230.06567383 C-212.50509521 229.38400146 -213.2413916 228.7023291 -214 228 C-214.73436279 227.32155029 -215.46872559 226.64310059 -216.2253418 225.9440918 C-218.48861523 223.82145565 -220.7155379 221.66578346 -222.9375 219.5 C-224.08702148 218.41912109 -224.08702148 218.41912109 -225.25976562 217.31640625 C-228.56850139 214.07507609 -230.7276382 211.75040095 -232.32421875 207.3515625 C-231.89644681 202.92953447 -229.9474638 200.83108259 -226.875 197.875 C-226.14410156 197.12669922 -226.14410156 197.12669922 -225.3984375 196.36328125 C-223.04353186 193.96453429 -220.64451425 191.6832593 -218.1328125 189.4453125 C-215.62974188 186.57549161 -215.79258619 185.65215445 -216 182 C-217.15786011 182.02356567 -217.15786011 182.02356567 -218.33911133 182.04760742 C-221.83016662 182.10989607 -225.32110509 182.14897173 -228.8125 182.1875 C-230.02744141 182.21263672 -231.24238281 182.23777344 -232.49414062 182.26367188 C-234.23920898 182.27817383 -234.23920898 182.27817383 -236.01953125 182.29296875 C-237.62985229 182.31653442 -237.62985229 182.31653442 -239.27270508 182.34057617 C-242.43537626 181.94563156 -243.07038554 181.4444944 -245 179 C-245.29835467 176.09376282 -245.42032628 173.40630697 -245.3984375 170.5 C-245.40130768 169.66791016 -245.40417786 168.83582031 -245.40713501 167.97851562 C-245.40917562 166.22004516 -245.40364593 164.46155199 -245.39111328 162.703125 C-245.37505902 160.00990087 -245.39096145 157.3181774 -245.41015625 154.625 C-245.40817382 152.91666335 -245.40433014 151.20832764 -245.3984375 149.5 C-245.40451019 148.69369141 -245.41058289 147.88738281 -245.4168396 147.05664062 C-245.34604215 141.43506647 -245.34604215 141.43506647 -243.64045715 139.29069519 C-241.23048468 137.39455308 -239.27219875 137.56528423 -236.23828125 137.48828125 C-235.12001953 137.45283203 -234.00175781 137.41738281 -232.84960938 137.38085938 C-231.68236328 137.35830078 -230.51511719 137.33574219 -229.3125 137.3125 C-228.13365234 137.27833984 -226.95480469 137.24417969 -225.74023438 137.20898438 C-222.82691775 137.12642075 -219.91390534 137.05729678 -217 137 C-216.19087759 135.19740185 -216.19087759 135.19740185 -216 133 C-217.33106676 131.05784464 -217.33106676 131.05784464 -219.3671875 129.3203125 C-220.08777344 128.63839844 -220.80835938 127.95648438 -221.55078125 127.25390625 C-223.09212096 125.84209088 -224.63378424 124.43062868 -226.17578125 123.01953125 C-229.21168131 120.14597878 -231.62428894 117.78188519 -233.4453125 113.9921875 C-232.71202997 109.06504349 -229.42733035 106.43197758 -226 103 C-225.28312012 102.2383252 -224.56624023 101.47665039 -223.82763672 100.69189453 C-221.560359 98.28510725 -219.25418465 95.92169262 -216.9375 93.5625 C-216.16083984 92.74845703 -215.38417969 91.93441406 -214.58398438 91.09570312 C-213.44219727 89.93651367 -213.44219727 89.93651367 -212.27734375 88.75390625 C-211.59921631 88.05595947 -210.92108887 87.3580127 -210.22241211 86.63891602 C-207.46763315 84.6074065 -205.38786588 84.23452452 -202 84 C-200.015625 85.08203125 -200.015625 85.08203125 -198.25 86.8125 C-197.58484375 87.44929688 -196.9196875 88.08609375 -196.234375 88.7421875 C-195.49703125 89.48726563 -194.7596875 90.23234375 -194 91 C-192.64648438 92.33417969 -192.64648438 92.33417969 -191.265625 93.6953125 C-188.82645217 96.11381437 -186.40653561 98.54908157 -184 101 C-183.01 100.67 -182.02 100.34 -181 100 C-180.9906543 99.26362305 -180.98130859 98.52724609 -180.97167969 97.76855469 C-180.91795845 94.42835782 -180.83431378 91.08955881 -180.75 87.75 C-180.73582031 86.59113281 -180.72164063 85.43226563 -180.70703125 84.23828125 C-180.67480469 83.12324219 -180.64257812 82.00820313 -180.609375 80.859375 C-180.58842773 79.83295898 -180.56748047 78.80654297 -180.54589844 77.74902344 C-179.83424939 74.16531671 -179.04264369 73.03520317 -176 71 C-173.07613526 70.6264691 -170.53891344 70.4852533 -167.62109375 70.5390625 C-166.8126149 70.53997894 -166.00413605 70.54089539 -165.17115784 70.5418396 C-163.46568921 70.54787054 -161.76023093 70.56360147 -160.05493164 70.58837891 C-157.44312582 70.62492129 -154.83273808 70.62939793 -152.22070312 70.62890625 C-150.56248773 70.6387366 -148.90428194 70.65039324 -147.24609375 70.6640625 C-146.07414711 70.66740097 -146.07414711 70.66740097 -144.87852478 70.67080688 C-141.06985104 70.73759567 -139.24302072 70.83798619 -136 73 C-134.8174545 76.09978605 -134.88407046 79.13268191 -134.90234375 82.421875 C-134.90717773 83.95908203 -134.90717773 83.95908203 -134.91210938 85.52734375 C-134.92467773 87.12255859 -134.92467773 87.12255859 -134.9375 88.75 C-134.94201172 89.82894531 -134.94652344 90.90789062 -134.95117188 92.01953125 C-134.96294273 94.67974383 -134.97938601 97.33984365 -135 100 C-131.21174762 100.29094758 -131.21174762 100.29094758 -128.0859375 98.390625 C-127.23902344 97.33101562 -127.23902344 97.33101562 -126.375 96.25 C-125.52035156 95.20585937 -125.52035156 95.20585937 -124.6484375 94.140625 C-124.10445313 93.43421875 -123.56046875 92.7278125 -123 92 C-122.49082031 91.443125 -121.98164062 90.88625 -121.45703125 90.3125 C-119.20364469 86.73607951 -118.401491 82.80789226 -117.3125 78.75 C-113.46521987 65.24220806 -107.70100248 53.09227106 -99 42 C-98.49339844 41.3296875 -97.98679688 40.659375 -97.46484375 39.96875 C-77.06583255 14.708058 -31.65804249 -0.75376292 0 0 Z " fill="#225362" transform="translate(245,251)"/>
<path d="M0 0 C2.5690587 2.54642382 4.25516221 4.84941911 5.125 8.4375 C6.300625 8.210625 7.47625 7.98375 8.6875 7.75 C14.12228694 7.11005145 17.71703774 8.72517129 22.05859375 11.8125 C34.85355624 22.1881421 41.7781267 37.04367546 43.53125 53.17578125 C45.31322934 73.32748931 41.94564906 93.58323381 31.8125 111.25 C26.71550084 120.3183525 27.21547417 129.71725129 27.17138672 139.875 C26.82071662 159.24675425 18.337472 177.48727575 5.125 191.4375 C3.52978516 192.57251953 3.52978516 192.57251953 1.90234375 193.73046875 C-1.338359 196.88912839 -1.59948662 198.2302821 -1.7578125 202.56445312 C-1.75523437 203.28568359 -1.75265625 204.00691406 -1.75 204.75 C-1.770625 205.49056641 -1.79125 206.23113281 -1.8125 206.99414062 C-1.8593121 208.80810942 -1.87073545 210.62293229 -1.875 212.4375 C-2.57367188 212.58960938 -3.27234375 212.74171875 -3.9921875 212.8984375 C-8.37738683 215.23958728 -10.34140695 218.95460171 -13 223.0625 C-14.15593255 224.80099237 -15.31218756 226.53927037 -16.46875 228.27734375 C-17.04238281 229.14858887 -17.61601562 230.01983398 -18.20703125 230.91748047 C-20.59108113 234.51937785 -23.0420371 238.0733195 -25.5 241.625 C-28.31916912 245.70964444 -31.12498955 249.8021011 -33.8984375 253.91796875 C-34.39649902 254.65313721 -34.89456055 255.38830566 -35.40771484 256.14575195 C-36.36310663 257.55658426 -37.31418575 258.97034979 -38.26025391 260.38745117 C-40.29596621 263.38453567 -41.82580059 265.40470039 -44.875 267.4375 C-45.18501953 266.98238037 -45.49503906 266.52726074 -45.81445312 266.05834961 C-53.86140226 254.25293642 -61.98107575 242.49975119 -70.1484375 230.77734375 C-70.76170898 229.89546387 -71.37498047 229.01358398 -72.00683594 228.10498047 C-73.29660392 226.26336979 -74.59746027 224.4294926 -75.90722656 222.60205078 C-76.54885742 221.70341309 -77.19048828 220.80477539 -77.8515625 219.87890625 C-78.43244629 219.07267822 -79.01333008 218.2664502 -79.61181641 217.43579102 C-80.875 215.4375 -80.875 215.4375 -80.875 213.4375 C-82.855 213.1075 -84.835 212.7775 -86.875 212.4375 C-86.875 209.4675 -86.875 206.4975 -86.875 203.4375 C-87.59945312 203.18355469 -88.32390625 202.92960938 -89.0703125 202.66796875 C-93.99157874 200.50891741 -97.81770801 196.90696386 -101.875 193.4375 C-102.49761719 192.91285156 -103.12023437 192.38820312 -103.76171875 191.84765625 C-115.98851168 180.6468879 -124.25013903 162.77033573 -125.875 146.4375 C-125.9715734 143.49174742 -125.99777271 140.54896769 -126.02563477 137.60180664 C-126.17513772 124.51584277 -128.75241517 114.66611983 -133.92529297 102.72705078 C-141.97529307 83.32013538 -143.86391668 58.28870886 -136.14550781 38.57421875 C-131.62102281 27.71545474 -125.4222143 19.45302814 -116.875 11.4375 C-115.67230469 10.29861328 -115.67230469 10.29861328 -114.4453125 9.13671875 C-87.57318321 -14.16150782 -28.92671905 -24.0096999 0 0 Z " fill="#FECB98" transform="translate(356.875,25.5625)"/>
<path d="M0 0 C6.95293292 -0.42631122 13.42202961 1.13985238 20.1875 2.625 C21.43257324 2.89715332 22.67764648 3.16930664 23.96044922 3.44970703 C50.5570361 9.38934897 75.13789717 17.47454298 95 37 C95.69867188 37.68578125 96.39734375 38.3715625 97.1171875 39.078125 C122.90610221 66.17153735 125.54642173 110.30773044 130.375 145.5 C130.62648804 147.30368042 130.62648804 147.30368042 130.88305664 149.14379883 C131.58190416 154.46747232 132.16269364 159.79137045 132.4140625 165.15625 C132.45740723 166.02056641 132.50075195 166.88488281 132.54541016 167.77539062 C132 170 132 170 129.8902483 171.61649036 C126.42139656 173.27696701 124.0500867 173.36963069 120.21061707 173.36076355 C119.54072591 173.36332682 118.87083475 173.3658901 118.18064386 173.36853105 C115.94334261 173.37345956 113.70672115 173.35699229 111.46948242 173.34057617 C109.86285417 173.33972969 108.25622475 173.34020545 106.64959717 173.34190369 C102.29249237 173.34276426 97.93563545 173.32512848 93.57858825 173.30418181 C89.02354041 173.28542537 84.46848687 173.28366539 79.91340637 173.28010559 C71.28973006 173.2707821 62.66616787 173.24616418 54.0425418 173.21605712 C44.22400723 173.18252261 34.40546721 173.16602949 24.58688962 173.15097082 C4.39119606 173.1196149 -15.80439478 173.06684845 -36 173 C-34.73055041 169.0854664 -33.37358426 165.59266064 -31.34765625 162.0078125 C-30.56201294 160.59798096 -30.56201294 160.59798096 -29.76049805 159.15966797 C-28.91998901 157.65750732 -28.91998901 157.65750732 -28.0625 156.125 C-5.53279256 115.10318957 17.52175057 61.58072064 4 14 C2.98524116 10.73749578 1.92771803 7.50726239 0.76953125 4.29296875 C0 2 0 2 0 0 Z " fill="#315879" transform="translate(380,251)"/>
<path d="M0 0 C-0.41214626 3.87417485 -1.03112561 7.27878437 -2.375 10.9375 C-16.46075076 51.94576945 0.9183643 100.23512751 18.6484375 137.26953125 C24.04374807 148.2583408 29.90859166 159.00741226 35.81347656 169.72875977 C37 172 37 172 37 173 C23.32697438 173.0231205 9.65395336 173.04091359 -4.01908779 173.05181217 C-10.36730576 173.05704164 -16.7155104 173.06414044 -23.0637207 173.07543945 C-29.18448582 173.08626606 -35.30523809 173.09227635 -41.42601204 173.09487724 C-43.76690943 173.0967319 -46.10780609 173.10035329 -48.44869804 173.10573006 C-51.71508202 173.11293748 -54.98141215 173.11399107 -58.24780273 173.11352539 C-59.71515114 173.1189183 -59.71515114 173.1189183 -61.21214294 173.12442017 C-62.5394342 173.12235817 -62.5394342 173.12235817 -63.89353943 173.12025452 C-64.66692374 173.12117631 -65.44030806 173.1220981 -66.23712826 173.12304783 C-68 173 -68 173 -69 172 C-69.13445554 169.74470221 -69.20368039 167.48546655 -69.24609375 165.2265625 C-69.27903645 163.830723 -69.31224802 162.43488982 -69.34570312 161.0390625 C-69.39310789 158.83142523 -69.43752112 156.62381286 -69.47680664 154.41601562 C-69.51653695 152.29008733 -69.56808408 150.16469531 -69.62109375 148.0390625 C-69.65867798 146.12407959 -69.65867798 146.12407959 -69.69702148 144.17041016 C-69.76272677 140.84345995 -69.76272677 140.84345995 -72 138 C-74.71004503 137.489395 -74.71004503 137.489395 -77.8828125 137.48828125 C-79.04941406 137.45283203 -80.21601563 137.41738281 -81.41796875 137.38085938 C-83.25294922 137.34702148 -83.25294922 137.34702148 -85.125 137.3125 C-86.35605469 137.27833984 -87.58710938 137.24417969 -88.85546875 137.20898438 C-91.9035551 137.12628436 -94.95134571 137.05720573 -98 137 C-98.99 134.525 -98.99 134.525 -100 132 C-99.33411865 131.34197388 -99.33411865 131.34197388 -98.65478516 130.6706543 C-96.64222971 128.67890386 -94.6335838 126.68325526 -92.625 124.6875 C-91.92632812 123.99720703 -91.22765625 123.30691406 -90.5078125 122.59570312 C-89.8375 121.92861328 -89.1671875 121.26152344 -88.4765625 120.57421875 C-87.85861816 119.96151123 -87.24067383 119.34880371 -86.60400391 118.7175293 C-84.29513359 116.24524578 -83.01764184 114.72331558 -82.93359375 111.27734375 C-84.47901921 106.52784939 -87.48384703 103.93953872 -91.0625 100.5625 C-91.7426416 99.90233887 -92.4227832 99.24217773 -93.12353516 98.56201172 C-97.6192019 94.22525557 -102.20284494 90.00236014 -107 86 C-107.33 85.67 -107.66 85.34 -108 85 C-113.39656562 85.31134032 -115.95643709 86.52114156 -120 90 C-114.13848642 62.94966093 -102.54040704 39.77847028 -79 24 C-57.8119928 10.39654397 -25.38179936 -0.60432856 0 0 Z " fill="#315979" transform="translate(245,251)"/>
<path d="M0 0 C2.5690587 2.54642382 4.25516221 4.84941911 5.125 8.4375 C6.300625 8.210625 7.47625 7.98375 8.6875 7.75 C14.12228694 7.11005145 17.71703774 8.72517129 22.05859375 11.8125 C34.85355624 22.1881421 41.7781267 37.04367546 43.53125 53.17578125 C45.5876585 76.43090147 40.14671748 99.37422825 28.125 119.4375 C27.465 119.7675 26.805 120.0975 26.125 120.4375 C24.98493252 112.63604648 24.80451393 104.86234924 24.60742188 96.98828125 C24.24884021 81.13222319 24.24884021 81.13222319 17.125 67.4375 C13.18599689 64.12044475 10.17607894 64.07411303 5.125 64.4375 C2.514122 65.47299138 0.15719577 66.51994894 -2.3125 67.8125 C-12.11973326 72.85446318 -22.7373477 75.74653082 -33.7109375 72.6328125 C-36.84141151 71.36133146 -39.84478758 69.93373173 -42.875 68.4375 C-45.29529582 67.27408704 -47.71892175 66.1179199 -50.14404297 64.96459961 C-51.80460185 64.17161819 -53.46139327 63.37068484 -55.11376953 62.56079102 C-65.13797216 57.70535051 -76.09700344 54.74585341 -87.046875 58.53515625 C-98.09889139 64.25961225 -103.92540008 72.75623844 -109.875 83.4375 C-110.2064502 84.03175781 -110.53790039 84.62601562 -110.87939453 85.23828125 C-117.21091388 96.79400001 -121.59675361 109.00169698 -125.875 121.4375 C-137.60991497 109.70258503 -140.68604309 81.38618474 -140.89794922 65.46240234 C-140.65286808 43.83790287 -132.11753994 26.3954839 -116.875 11.4375 C-90.37481103 -13.79661734 -29.78415503 -24.72138727 0 0 Z " fill="#883F2E" transform="translate(356.875,25.5625)"/>
<path d="M0 0 C21.54176024 4.97117544 42.68096643 19.27654062 54.75 37.6875 C71.45938305 64.45413716 74.96312832 96.82981786 79.3125 127.4375 C79.44759979 128.3745578 79.58269958 129.3116156 79.72189331 130.27706909 C83.23587282 154.80880165 83.23587282 154.80880165 82 159 C77.47857157 162.72571664 73.09572382 162.40812244 67.52807617 162.34057617 C66.58124969 162.34101425 65.63442322 162.34145233 64.65890503 162.34190369 C61.53671479 162.33981762 58.41506492 162.31649481 55.29296875 162.29296875 C53.12535394 162.28737216 50.95773532 162.28310236 48.79011536 162.28010559 C43.09035734 162.26866186 37.39082936 162.2391985 31.69116211 162.20599365 C25.87291577 162.17528275 20.05463219 162.16159806 14.23632812 162.14648438 C2.82411779 162.11432854 -8.58792196 162.06313769 -20 162 C-19.44423457 158.14139315 -18.66368132 154.72457392 -17.20922852 151.10986328 C-16.84116592 150.18674347 -16.47310333 149.26362366 -16.09388733 148.31253052 C-15.49247169 146.8313826 -15.49247169 146.8313826 -14.87890625 145.3203125 C-14.46011703 144.2759201 -14.04132782 143.23152771 -13.60984802 142.15548706 C-12.26636154 138.80969573 -10.9143886 135.46740387 -9.5625 132.125 C-8.68763187 129.94682304 -7.81327824 127.76843935 -6.93945312 125.58984375 C-6.0654799 123.41651553 -5.19113105 121.24333833 -4.31640625 119.0703125 C-3.8840567 117.99469055 -3.45170715 116.9190686 -3.0062561 115.81085205 C-0.76064133 110.25246553 1.53732868 104.72402845 3.92626953 99.22558594 C4.39525162 98.13623749 4.8642337 97.04688904 5.34742737 95.92453003 C6.24188022 93.85472523 7.14859631 91.79016227 8.06944275 89.73196411 C11.02815263 83.06579444 11.02815263 83.06579444 10 76 C8.21345134 73.64783649 8.21345134 73.64783649 5.875 71.625 C2.79437932 68.71169738 -0.18711249 65.79971121 -3 62.625 C-3.556875 61.99851562 -4.11375 61.37203125 -4.6875 60.7265625 C-6 59 -6 59 -7 56 C-6.0713916 55.82871582 -5.1427832 55.65743164 -4.18603516 55.48095703 C-0.74454578 54.84233458 2.6954845 54.19675387 6.13476562 53.54638672 C7.62414897 53.26623462 9.11406026 52.98887436 10.60449219 52.71435547 C12.74558824 52.31949288 14.88459068 51.91465956 17.0234375 51.5078125 C18.31169434 51.26691895 19.59995117 51.02602539 20.92724609 50.77783203 C24.08344033 50.25786803 24.08344033 50.25786803 26 48 C25.97390509 41.28490983 22.76182691 36.7480222 19.1875 31.25 C18.32475464 29.8902002 18.32475464 29.8902002 17.44458008 28.50292969 C16.24426967 26.61323964 15.03870644 24.72687669 13.828125 22.84375 C11.46687237 19.17069035 9.12960455 15.48275178 6.79614258 11.79199219 C5.73709489 10.11847504 4.67451947 8.44718429 3.6081543 6.77832031 C2.89526245 5.65828613 2.89526245 5.65828613 2.16796875 4.515625 C1.74797607 3.85852539 1.3279834 3.20142578 0.89526367 2.52441406 C0 1 0 1 0 0 Z " fill="#1A3B55" transform="translate(430,262)"/>
<path d="M0 0 C0 3.31635876 -0.52162363 4.23435602 -2.203125 7 C-2.68362305 7.79575439 -3.16412109 8.59150879 -3.65917969 9.41137695 C-4.18415039 10.26562256 -4.70912109 11.11986816 -5.25 12 C-5.78270508 12.88196045 -6.31541016 13.7639209 -6.86425781 14.67260742 C-9.65492958 19.26855118 -12.51060885 23.81074558 -15.46875 28.30078125 C-16.01885742 29.14318359 -16.56896484 29.98558594 -17.13574219 30.85351562 C-18.18989015 32.45928972 -19.2577339 34.05617899 -20.34082031 35.64257812 C-23.44557447 40.37779673 -24.62986791 43.32369042 -24 49 C-13.12757255 51.97134663 -2.0771533 53.96233928 9 56 C9 56.66 9 57.32 9 58 C8.34 58 7.68 58 7 58 C6.73574219 58.59296875 6.47148437 59.1859375 6.19921875 59.796875 C4.95629575 62.08029054 3.69598354 63.47426723 1.8125 65.25 C-0.80802891 67.8209811 -3.42178259 70.38827195 -5.9375 73.0625 C-6.52402344 73.67222656 -7.11054688 74.28195312 -7.71484375 74.91015625 C-9.50597567 77.82278719 -9.27015501 79.5910899 -9 83 C-8.09798439 85.69280558 -7.14289516 88.21667271 -6.02734375 90.81640625 C-5.71249527 91.57402756 -5.39764679 92.33164886 -5.07325745 93.11222839 C-4.39235604 94.7472143 -3.70663412 96.38019935 -3.01660156 98.01135254 C-1.92727265 100.58667888 -0.85058117 103.16695326 0.22265625 105.74902344 C1.71765091 109.34423906 3.21689539 112.93763424 4.71923828 116.52978516 C8.02146176 124.43710586 11.2715676 132.36554206 14.50192261 140.30245972 C15.48881452 142.72257036 16.48260981 145.13976764 17.47680664 147.55688477 C18.07865223 149.03256625 18.68015268 150.50838856 19.28125 151.984375 C19.55859482 152.65446091 19.83593964 153.32454681 20.12168884 154.01493835 C21.2693382 156.85175171 22 158.90622336 22 162 C16.46411467 162.02464775 10.928261 162.04283496 5.39233398 162.05493164 C3.5075627 162.05997244 1.62279535 162.06680498 -0.26196289 162.07543945 C-2.96501636 162.08751617 -5.66801831 162.09323068 -8.37109375 162.09765625 C-9.21900986 162.10281754 -10.06692596 162.10797882 -10.9405365 162.11329651 C-12.96071068 162.11349195 -14.98077934 162.06206211 -17 162 C-18.89802291 160.10197709 -18.19867678 156.75195522 -18.24609375 154.2265625 C-18.27903645 152.830723 -18.31224802 151.43488982 -18.34570312 150.0390625 C-18.39310789 147.83142523 -18.43752112 145.62381286 -18.47680664 143.41601562 C-18.51653695 141.29008733 -18.56808408 139.16469531 -18.62109375 137.0390625 C-18.65867798 135.12407959 -18.65867798 135.12407959 -18.69702148 133.17041016 C-18.76272677 129.84345995 -18.76272677 129.84345995 -21 127 C-23.71004503 126.489395 -23.71004503 126.489395 -26.8828125 126.48828125 C-28.04941406 126.45283203 -29.21601563 126.41738281 -30.41796875 126.38085938 C-31.64128906 126.35830078 -32.86460937 126.33574219 -34.125 126.3125 C-35.35605469 126.27833984 -36.58710938 126.24417969 -37.85546875 126.20898438 C-40.9035551 126.12628436 -43.95134571 126.05720573 -47 126 C-47.66 124.35 -48.32 122.7 -49 121 C-48.5560791 120.56131592 -48.1121582 120.12263184 -47.65478516 119.6706543 C-45.64222971 117.67890386 -43.6335838 115.68325526 -41.625 113.6875 C-40.92632812 112.99720703 -40.22765625 112.30691406 -39.5078125 111.59570312 C-38.8375 110.92861328 -38.1671875 110.26152344 -37.4765625 109.57421875 C-36.85861816 108.96151123 -36.24067383 108.34880371 -35.60400391 107.7175293 C-33.29513359 105.24524578 -32.01764184 103.72331558 -31.93359375 100.27734375 C-33.47901921 95.52784939 -36.48384703 92.93953872 -40.0625 89.5625 C-40.7426416 88.90233887 -41.4227832 88.24217773 -42.12353516 87.56201172 C-46.6192019 83.22525557 -51.20284494 79.00236014 -56 75 C-56.33 74.67 -56.66 74.34 -57 74 C-62.39656562 74.31134032 -64.95643709 75.52114156 -69 79 C-63.15947368 52.04651519 -51.57682248 28.62835751 -28 13 C-19.14178872 7.52785465 -9.81506235 3.44272001 0 0 Z " fill="#1A3B55" transform="translate(194,262)"/>
<path d="M0 0 C3.98164489 1.51245216 6.85644868 4.0542903 10.08984375 6.78125 C11.3669928 7.84034921 12.64563158 8.89765466 13.92578125 9.953125 C14.54807617 10.46681641 15.17037109 10.98050781 15.81152344 11.50976562 C18.6926874 13.81292286 21.69018145 15.92102049 24.71484375 18.03125 C24.05206924 18.71651764 23.38929474 19.40178528 22.70643616 20.1078186 C20.20727905 23.77629731 20.39758871 25.4398641 20.84936523 29.80615234 C20.9421546 30.78563371 20.9421546 30.78563371 21.0368185 31.78490257 C21.24054289 33.87000662 21.47595642 35.94990913 21.71484375 38.03125 C21.85458229 39.36586004 21.99311318 40.70059712 22.13040161 42.03546143 C22.49568619 45.50279755 22.8932256 48.96565107 23.30214119 52.42808914 C23.57027044 54.69861273 23.83378594 56.96963472 24.09629822 59.24081421 C24.65260152 64.04643486 25.21478753 68.85135802 25.77734375 73.65625 C26.43343454 79.26654406 27.08705573 84.87711352 27.73632622 90.48820114 C27.99538196 92.71806202 28.25796231 94.94748874 28.52076721 97.1769104 C28.67944828 98.54321495 28.83797994 99.90953687 28.99633789 101.27587891 C29.13544083 102.46307526 29.27454376 103.65027161 29.41786194 104.8734436 C29.71484375 108.03125 29.71484375 108.03125 29.71484375 113.03125 C9.91484375 113.03125 -9.88515625 113.03125 -30.28515625 113.03125 C-30.28515625 102.90673397 -30.28515625 102.90673397 -29.78198242 98.83227539 C-29.67145538 97.91501678 -29.56092834 96.99775818 -29.447052 96.05270386 C-29.32530609 95.08785065 -29.20356018 94.12299744 -29.078125 93.12890625 C-28.95283417 92.10088898 -28.82754333 91.0728717 -28.69845581 90.01370239 C-28.43169253 87.82984179 -28.16253425 85.64627259 -27.8911438 83.46298218 C-27.47012514 80.07337209 -27.05619366 76.68296496 -26.64428711 73.29223633 C-25.66880493 65.27084562 -24.68482674 57.25051359 -23.69042969 49.23144531 C-23.23543688 45.56143046 -22.79095616 41.89019669 -22.34765625 38.21875 C-22.15562622 36.71356812 -22.15562622 36.71356812 -21.9597168 35.17797852 C-21.85183838 34.27748779 -21.74395996 33.37699707 -21.6328125 32.44921875 C-21.54008057 31.70438232 -21.44734863 30.9595459 -21.35180664 30.19213867 C-21.20223096 25.34270872 -22.65247645 22.03750187 -25.28515625 18.03125 C-23.92583984 16.96197266 -23.92583984 16.96197266 -22.5390625 15.87109375 C-21.95310303 15.40993164 -21.36714355 14.94876953 -20.76342773 14.47363281 C-19.48198909 13.46703312 -18.19893489 12.46248684 -16.91430664 11.45996094 C-14.08164799 9.24704695 -11.27643779 7.02390229 -8.52734375 4.70703125 C-7.76679688 4.07152344 -7.00625 3.43601562 -6.22265625 2.78125 C-5.57167969 2.21921875 -4.92070312 1.6571875 -4.25 1.078125 C-2.28515625 0.03125 -2.28515625 0.03125 0 0 Z " fill="#DA372E" transform="translate(313.28515625,310.96875)"/>
<path d="M0 0 C8.08625417 5.92794867 12.90433783 13.7130135 16.0625 23.1875 C17.30416918 37.48080542 15.69673758 47.09217429 7.125 58.84375 C5.01107657 61.24593572 2.93331737 62.98460508 0.3125 64.8125 C-0.48671875 65.38226563 -1.2859375 65.95203125 -2.109375 66.5390625 C-8.62586036 70.3373454 -14.35774132 71.70190137 -21.875 71.5625 C-23.06403931 71.54727295 -23.06403931 71.54727295 -24.27709961 71.53173828 C-36.16205589 71.21604604 -44.92233275 66.62229798 -53.1875 58.0625 C-61.20832795 48.40542315 -63.20761221 38.33051301 -62.18994141 26.10986328 C-60.74738049 15.12463634 -53.49545782 6.67211559 -45.0625 0.0625 C-31.4422015 -9.91545879 -14.06422395 -8.81673199 0 0 Z " fill="#4F8496" transform="translate(110.9375,377.8125)"/>
<path d="M0 0 C2.15953893 3.2393084 2.96356894 5.87368575 4.03125 9.61108398 C4.22340088 10.27809326 4.41555176 10.94510254 4.61352539 11.63232422 C5.02943597 13.07869562 5.44291738 14.52576726 5.85424805 15.9734478 C6.50551647 18.26550829 7.16307307 20.55568111 7.82226562 22.84547424 C8.98317974 26.88195472 10.13850308 30.9200103 11.29199219 34.95861816 C13.13734299 41.41957312 14.98700434 47.8792689 16.84448242 54.33674812 C17.49148635 56.59142539 18.13357826 58.84746276 18.77539062 61.10362244 C19.17296376 62.48898336 19.57073943 63.87428617 19.96875 65.25952148 C20.31357422 66.46736801 20.65839844 67.67521454 21.01367188 68.91966248 C22.42938496 73.91460201 22.42938496 73.91460201 26.12109375 77.125 C30.79461708 76.92207904 33.5653907 73.9105181 37.0625 71 C38.46066064 69.84272574 39.86789831 68.69630635 41.28515625 67.5625 C41.90269775 67.04816406 42.52023926 66.53382813 43.15649414 66.00390625 C45 65 45 65 47.04467773 65.08984375 C49.77630931 66.36135361 50.65766623 67.27005479 52 70 C51.95455458 72.89587263 51.74290673 75.4841858 51.33984375 78.33203125 C51.12691431 80.052832 50.91453494 81.77370087 50.70263672 83.49462891 C50.58587585 84.3965094 50.46911499 85.29838989 50.34881592 86.2276001 C49.76903107 90.83574835 49.29980445 95.45515273 48.81640625 100.07421875 C48.61106548 101.98755297 48.40491976 103.90080096 48.19799805 105.81396484 C48.09401703 106.77566589 47.99003601 107.73736694 47.88290405 108.72821045 C47.77717072 109.704776 47.67143738 110.68134155 47.5625 111.6875 C47.45394684 112.69049133 47.34539368 113.69348267 47.23355103 114.72686768 C45.63097791 129.50377933 43.94894009 144.26411148 42 159 C39.25496748 156.55269557 37.69979944 153.91315164 35.9609375 150.6875 C35.38496826 149.62192871 34.80899902 148.55635742 34.21557617 147.45849609 C33.30449097 145.74654053 33.30449097 145.74654053 32.375 144 C32.06253326 143.41454407 31.75006653 142.82908813 31.4281311 142.22589111 C9.30897419 100.73788213 -12.63846389 49.82021692 -1 2 C-0.67 1.34 -0.34 0.68 0 0 Z " fill="#D7D6D6" transform="translate(241,265)"/>
<path d="M0 0 C0.66 0 1.32 0 2 0 C15.54117917 37.01255639 -3.54570918 85.41545229 -19.05810547 118.84838867 C-25.21460438 131.81956164 -32.08351891 144.42225105 -39 157 C-39.33 157 -39.66 157 -40 157 C-42.48651822 140.63620973 -44.44083423 124.22131942 -46.27197266 107.77392578 C-46.67359029 104.17011274 -47.08544424 100.56754259 -47.4995079 96.9651413 C-47.82040197 94.15872185 -48.13437808 91.35156001 -48.44641876 88.54414368 C-48.66716722 86.57328146 -48.89499987 84.60321682 -49.12298584 82.63317871 C-49.31879242 80.84345642 -49.31879242 80.84345642 -49.51855469 79.01757812 C-49.63608093 77.97283325 -49.75360718 76.92808838 -49.87469482 75.85168457 C-50.0580579 71.67872323 -49.74145333 68.97155954 -47.1875 65.625 C-45 64 -45 64 -43.06811523 64.25341797 C-40.92082822 65.02858072 -39.51047314 65.91326688 -37.72265625 67.3203125 C-37.12646484 67.77277344 -36.53027344 68.22523438 -35.91601562 68.69140625 C-34.6789833 69.64818363 -33.44718727 70.61176914 -32.22070312 71.58203125 C-28.64816198 74.40876242 -28.64816198 74.40876242 -24.28686523 74.62841797 C-23.53219971 74.42104004 -22.77753418 74.21366211 -22 74 C-17.11277017 60.17289231 -13.26081904 46.05443215 -9.3125 31.9375 C-8.29794892 28.31919964 -7.28235122 24.7011988 -6.2651825 21.08363342 C-5.63687181 18.84813655 -5.0101733 16.61218574 -4.3853302 14.37571716 C-3.02935585 9.54313085 -1.65630157 4.74066013 0 0 Z " fill="#D7D7D7" transform="translate(383,267)"/>
<path d="M0 0 C0 5.28 0 10.56 0 16 C-1.65 16.66 -3.3 17.32 -5 18 C-6.65293012 19.69479013 -6.65293012 19.69479013 -7.9453125 21.7890625 C-8.71609131 22.94184692 -8.71609131 22.94184692 -9.50244141 24.11791992 C-10.03788574 24.94525635 -10.57333008 25.77259277 -11.125 26.625 C-12.28093255 28.36349237 -13.43718756 30.10177037 -14.59375 31.83984375 C-15.16738281 32.71108887 -15.74101562 33.58233398 -16.33203125 34.47998047 C-18.71608113 38.08187785 -21.1670371 41.6358195 -23.625 45.1875 C-26.44416912 49.27214444 -29.24998955 53.3646011 -32.0234375 57.48046875 C-32.52149902 58.21563721 -33.01956055 58.95080566 -33.53271484 59.70825195 C-34.48810663 61.11908426 -35.43918575 62.53284979 -36.38525391 63.94995117 C-38.42096621 66.94703567 -39.95080059 68.96720039 -43 71 C-43.31001953 70.54488037 -43.62003906 70.08976074 -43.93945312 69.62084961 C-51.98640226 57.81543642 -60.10607575 46.06225119 -68.2734375 34.33984375 C-68.88670898 33.45796387 -69.49998047 32.57608398 -70.13183594 31.66748047 C-71.42160392 29.82586979 -72.72246027 27.9919926 -74.03222656 26.16455078 C-74.99467285 24.81659424 -74.99467285 24.81659424 -75.9765625 23.44140625 C-76.55744629 22.63517822 -77.13833008 21.8289502 -77.73681641 20.99829102 C-79 19 -79 19 -79 17 C-80.98 16.67 -82.96 16.34 -85 16 C-85 13.36 -85 10.72 -85 8 C-81.59685076 8.58613115 -78.70908002 9.46803701 -75.5625 10.875 C-55.65418007 18.92054522 -36.25973362 17.26053902 -16.625 9.6875 C-11.59020547 7.48348598 -7.25648766 4.64161517 -2.86328125 1.35546875 C-1 0 -1 0 0 0 Z " fill="#E5B88A" transform="translate(355,222)"/>
<path d="M0 0 C6.49626471 3.36433471 10.60858888 8.14926223 14.16796875 14.4375 C16.43472557 21.86742513 15.99831427 28.14767105 12.484375 35.08984375 C8.28095279 42.27011579 3.06815297 45.53327193 -4.70703125 48.125 C-12.41212692 49.11464532 -18.34201666 47.57091471 -24.70703125 43.125 C-29.43811239 38.70874127 -33.35081187 34.34597317 -34.078125 27.76953125 C-34.2147512 19.88539558 -34.13369621 13.34549365 -28.70703125 7.125 C-26.19816895 4.8297636 -23.61329171 2.88724541 -20.70703125 1.125 C-20.10375 0.75117188 -19.50046875 0.37734375 -18.87890625 -0.0078125 C-13.21055346 -2.27107566 -5.73179859 -1.85270257 0 0 Z " fill="#FCFDFD" transform="translate(97.70703125,386.875)"/>
<path d="M0 0 C2.48397729 0.84347508 3.97690991 1.70940046 5.97802734 3.38037109 C6.60708984 3.89599609 7.23615234 4.41162109 7.88427734 4.94287109 C8.52623047 5.48427734 9.16818359 6.02568359 9.82958984 6.58349609 C11.10673889 7.64259531 12.38537767 8.69990075 13.66552734 9.75537109 C14.28782227 10.2690625 14.91011719 10.78275391 15.55126953 11.31201172 C18.4324335 13.61516896 21.42992754 15.72326658 24.45458984 17.83349609 C20.48650272 23.41026719 16.17028707 28.45514954 11.50219727 33.44384766 C8.73227948 36.384076 8.73227948 36.384076 6.21289062 39.53564453 C4.16312809 42.32594004 2.93080739 43.70790726 -0.46337891 44.60302734 C-4.93871241 43.48561201 -6.92269323 40.95183815 -9.85791016 37.52099609 C-10.41824951 36.89177246 -10.97858887 36.26254883 -11.5559082 35.61425781 C-16.37893538 30.15638598 -21.03131037 24.54902295 -25.54541016 18.83349609 C-21.21482822 14.27590785 -16.46539396 10.36413259 -11.54541016 6.45849609 C-10.75134766 5.80494141 -9.95728516 5.15138672 -9.13916016 4.47802734 C-8.36572266 3.86572266 -7.59228516 3.25341797 -6.79541016 2.62255859 C-6.09931641 2.06262207 -5.40322266 1.50268555 -4.68603516 0.92578125 C-2.54541016 -0.16650391 -2.54541016 -0.16650391 0 0 Z " fill="#C53029" transform="translate(313.54541015625,311.16650390625)"/>
</svg>
